# xmcd
#
# Track frame offsets:
# 150
# 20996
# 42289
# 61995
# 79517
# 100361
# 119464
# 141096
# 161887
# 182663
# 201318
# 221123
#
# Disc length: 3204 seconds
#
# Revision: 1
# Processed by: cddbd v1.5.1PL0 Copyright (c) Steve Scherf et al.
# Submitted via: Easy CD Ripper v2.30
#
DISCID=b40c820c
DTITLE=無印良品 - 3人行
DYEAR=1998
DGENRE=Country
TTITLE0=猜測 - 無印良品
TTITLE1=如果你願意 - 無印良品
TTITLE2=就叫我孩子 - 無印良品
TTITLE3=愛是寂寞的風 - 無印良品
TTITLE4=我找你找了好久 - 無印良品
TTITLE5=話題 - 無印良品
TTITLE6=到我這裡躲雨 - 無印良品
TTITLE7=道謙 - 無印良品
TTITLE8=孤島 - 無印良品
TTITLE9=想你在 - 無印良品
TTITLE10=愛多一點點 - 無印良品
TTITLE11=世界因愛發光 - 無印良品
EXTD=
EXTT0=
EXTT1=
EXTT2=
EXTT3=
EXTT4=
EXTT5=
EXTT6=
EXTT7=
EXTT8=
EXTT9=
EXTT10=
EXTT11=
PLAYORDER=
